<svg enable-background="new 0 0 512.002 512.002" viewBox="0 0 512.002 512.002" xmlns="http://www.w3.org/2000/svg"><g fill="#999"><path d="m145.687 374.175c0-13.504-10.951-24.455-24.455-24.455-13.516 0-24.467 10.951-24.467 24.455s10.951 24.455 24.467 24.455c13.504 0 24.455-10.951 24.455-24.455z"/><path d="m231.205 378.426c0-11.159-9.045-20.204-20.204-20.204-11.147 0-20.192 9.045-20.192 20.204s9.045 20.204 20.192 20.204c11.159 0 20.204-9.045 20.204-20.204z"/><path d="m332.952 372.615c0-14.37-11.656-26.026-26.026-26.026-14.359 0-26.014 11.656-26.014 26.026s11.656 26.014 26.014 26.014c14.371.001 26.026-11.643 26.026-26.014z"/><path d="m392.975 358.557c4.875-3.315 8.075-8.906 8.075-15.248 0-10.177-8.259-18.437-18.437-18.437-10.189 0-18.448 8.259-18.448 18.437 0 10.189 8.259 18.437 18.448 18.437 3.835-.001 7.416-1.179 10.362-3.189z"/><path d="m31.025 369.289c2.403.866 4.99 1.34 7.693 1.34 12.441 0 22.537-10.085 22.537-22.537 0-12.441-10.096-22.537-22.537-22.537-12.453 0-22.537 10.096-22.537 22.537 0 9.727 6.157 18.009 14.786 21.174.023-.001.035.011.058.023z"/></g><path d="m233.099 174.515v14.151h-5.302-62.067v-14.151c0-6.758 5.476-12.233 12.233-12.233h42.903c6.758 0 12.233 5.475 12.233 12.233z" fill="#06b559"/><path d="m488.196 113.372 15.144 36.757-58.579 24.132-2.599-6.319-9.946-24.108-2.599-6.319z" fill="#06b559"/><path d="m432.216 143.834 9.946 24.108-155.036 63.904-2.16.289c-2.299-8.294-6.388-16.045-12.037-22.653z" fill="#0b9b53"/><path d="m392.975 358.557-29.445 28.244c-7.901 7.589-18.437 11.829-29.388 11.829h-27.216c14.37 0 26.026-11.644 26.026-26.014s-11.656-26.026-26.026-26.026c-14.359 0-26.014 11.656-26.014 26.026s11.656 26.014 26.014 26.014h-95.926c11.159 0 20.204-9.045 20.204-20.204s-9.045-20.204-20.204-20.204c-11.147 0-20.192 9.045-20.192 20.204s9.045 20.204 20.192 20.204h-89.768c13.504 0 24.455-10.951 24.455-24.455s-10.951-24.455-24.455-24.455c-13.516 0-24.467 10.951-24.467 24.455s10.951 24.455 24.467 24.455h-18.102c-6.457 0-12.846-1.259-18.829-3.685l-53.277-25.656c2.403.866 4.99 1.34 7.693 1.34 12.441 0 22.537-10.085 22.537-22.537 0-12.441-10.096-22.537-22.537-22.537l343.895-.682c-10.189 0-18.448 8.259-18.448 18.437 0 10.189 8.259 18.437 18.448 18.437 3.836-.002 7.417-1.18 10.363-3.19z" fill="#088443"/><path d="m287.127 247.995v11.171h-180.727v-11.171c0-7.867 1.559-15.572 4.517-22.711 2.957-7.127 7.301-13.677 12.857-19.245 11.124-11.124 26.222-17.374 41.956-17.374h62.067c7.867 0 15.572 1.559 22.711 4.517 7.127 2.946 13.677 7.289 19.245 12.857 1.109 1.109 2.172 2.253 3.177 3.442 5.649 6.608 9.738 14.359 12.037 22.653 1.42 5.118 2.16 10.455 2.16 15.861z" fill="#06b559"/><path d="m157.699 225.286c2.957-7.127 7.301-13.677 12.857-19.245 11.124-11.124 26.222-17.374 41.956-17.374h-46.782c-15.733 0-30.832 6.249-41.956 17.374-5.556 5.568-9.9 12.118-12.857 19.245-2.957 7.139-4.517 14.844-4.517 22.711v11.171h46.782v-11.171c0-7.868 1.56-15.573 4.517-22.711z" fill="#0b9b53"/><path d="m352.336 294.572h-296.267-14.878l18.632-35.406h46.577 180.727 20.492z" fill="#06b559"/><path d="m106.4 259.166h-46.577l-18.632 35.407h14.878 45.766l18.633-35.407z" fill="#0b9b53"/><path d="m382.607 316.208c-.006 0-343.907.684-343.907.684-17.196.009-31.184 14.002-31.184 31.2 0 13.229 8.28 24.554 19.928 29.085l53.095 25.569c.163.079.329.152.497.221 7.063 2.869 14.497 4.325 22.097 4.325h231.004c13.26 0 25.83-5.056 35.396-14.238l28.988-27.821c6.775-4.931 11.191-12.918 11.191-21.921-.001-14.945-12.16-27.104-27.105-27.104zm9.777 27.104c0 5.39-4.385 9.775-9.775 9.775-5.391 0-9.776-4.385-9.776-9.775 0-5.391 4.385-9.776 9.776-9.776 5.388 0 9.775 4.385 9.775 9.776zm-353.667-9.093c7.65 0 13.874 6.224 13.874 13.874s-6.224 13.874-13.874 13.874-13.874-6.224-13.874-13.874 6.225-13.874 13.874-13.874zm66.717 39.955c0-8.709 7.085-15.794 15.794-15.794s15.794 7.085 15.794 15.794c0 8.694-7.062 15.766-15.748 15.79h-.089c-8.689-.024-15.751-7.098-15.751-15.79zm94.035 4.254c0-6.362 5.176-11.538 11.538-11.538s11.538 5.175 11.538 11.538c0 6.346-5.152 11.511-11.493 11.536h-.089c-6.342-.024-11.494-5.188-11.494-11.536zm90.108-5.817c0-9.569 7.786-17.355 17.355-17.355s17.355 7.786 17.355 17.355c0 9.554-7.762 17.329-17.31 17.353h-.089c-9.55-.024-17.311-7.799-17.311-17.353zm67.957 7.943c-5.693 5.464-12.998 8.709-20.794 9.303 3.092-4.924 4.876-10.78 4.876-17.244 0-19.124-15.559-34.683-34.683-34.683s-34.683 15.559-34.683 34.683c0 6.512 1.807 12.407 4.941 17.353h-39.867c1.632-3.435 2.548-7.318 2.548-11.536 0-15.916-12.948-28.865-28.865-28.865s-28.865 12.948-28.865 28.865c0 4.218.916 8.099 2.548 11.536h-34.373c2.561-4.698 4.032-10.073 4.032-15.79 0-18.263-14.858-33.121-33.121-33.121s-33.12 14.857-33.12 33.12c0 5.018 1.138 9.77 3.144 14.038-1.162-.35-2.314-.746-3.451-1.2l-29.852-14.376c7.28-5.717 11.97-14.59 11.97-24.543 0-5.004-1.191-9.733-3.293-13.929l290.691-.578c-1.166 3.021-1.811 6.299-1.811 9.725 0 10.747 6.286 20.051 15.375 24.432z" fill="#333"/><path d="m511.348 146.824-15.147-36.751c-.876-2.124-2.559-3.814-4.681-4.697-2.122-.884-4.506-.888-6.631-.012l-58.573 24.14c-3.843 1.584-5.934 5.613-5.224 9.544l-145.962 60.159c-9.356-9.084-20.866-15.17-33.372-17.767v-6.931c0-11.519-9.372-20.89-20.89-20.89h-42.912c-11.519 0-20.89 9.371-20.89 20.89v6.055c-14.879 1.881-28.64 8.575-39.417 19.351-12.843 12.843-19.916 29.918-19.916 48.081v2.509h-37.914c-3.217 0-6.169 1.782-7.667 4.629l-17.417 33.091c-6.136 1.343-12.155 3.248-18.008 5.756l-11.474 4.919c-4.398 1.885-6.435 6.978-4.55 11.376 1.885 4.399 6.978 6.434 11.376 4.55l11.474-4.918c10.334-4.429 21.275-6.675 32.519-6.675h296.268 34.438l18.97 12.851c1.489 1.008 3.179 1.492 4.852 1.492 2.777 0 5.506-1.333 7.181-3.805 2.683-3.962 1.647-9.349-2.314-12.032l-21.171-14.341c-1.435-.971-3.127-1.491-4.86-1.491h-34.08l-42.353-33.53c-1.531-1.212-3.425-1.871-5.377-1.871h-11.831v-2.509c0-3.395-.248-6.752-.734-10.05l142.596-58.769c1.629 2.361 4.303 3.754 7.115 3.754 1.1 0 2.218-.211 3.298-.656l58.573-24.14c2.124-.876 3.814-2.559 4.697-4.681.88-2.122.884-4.506.008-6.631zm-336.953 27.685c0-1.965 1.598-3.563 3.563-3.563h42.912c1.965 0 3.563 1.598 3.563 3.563v5.492h-50.037zm153.045 111.398h-271.365-.536l9.512-18.074h239.561zm-212.377-35.401v-2.509c0-13.534 5.271-26.257 14.84-35.828 9.569-9.569 22.294-14.84 35.828-14.84h62.066c13.534 0 26.258 5.271 35.828 14.84 9.569 9.571 14.841 22.295 14.841 35.828v2.509zm171.259-37.169 141.191-58.192 1.635 3.96 1.704 4.134-140.552 57.928c-1.156-2.689-2.478-5.305-3.978-7.83zm163.157-50.385-4.524-10.961-4.025-9.767 42.552-17.538 8.544 20.731z" fill="#333"/></svg>