<svg width="20" height="20" viewBox="0 0 20 20" fill="none" xmlns="http://www.w3.org/2000/svg">
<g clip-path="url(#clip0_29_2)">
<path d="M9.99998 20C15.5228 20 20 15.5228 20 9.99998C20 4.47714 15.5228 0 9.99998 0C4.47714 0 0 4.47714 0 9.99998C0 15.5228 4.47714 20 9.99998 20Z" fill="#27536B"/>
<path d="M15.2882 11.4384C13.399 13.3276 10.336 13.3276 8.44682 11.4384C6.55764 9.54923 6.55764 6.4862 8.44682 4.59701C8.84073 4.2031 9.28574 3.89165 9.7604 3.66203C8.20576 3.70348 6.6635 4.31728 5.47699 5.50375C3.01811 7.96263 3.01811 11.9493 5.47699 14.4082C7.93587 16.8671 11.9226 16.8671 14.3814 14.4082C15.5679 13.2217 16.1817 11.6795 16.2232 10.1248C15.9936 10.5995 15.6821 11.0445 15.2882 11.4384Z" fill="#FCD57E"/>
<path d="M13.8989 5.99888L14.1219 8.01646L14.345 5.99888L16.3626 5.77587L14.345 5.55278L14.1219 3.53519L13.8989 5.55278L11.8813 5.77587L13.8989 5.99888ZM4.38935 16.0404L4.54912 17.4856L4.70889 16.0404L6.15411 15.8807L4.70889 15.7209L4.54912 14.2757L4.38935 15.7209L2.94412 15.8807L4.38935 16.0404Z" fill="white"/>
<path d="M9.41574 9.89822L9.70195 9.61201L9.98817 9.89821L9.70196 10.1844L9.41574 9.89822Z" fill="white"/>
<path d="M16.2808 7.75639L16.567 7.47017L16.8532 7.75638L16.567 8.04259L16.2808 7.75639Z" fill="white"/>
<path d="M17.4951 11.3128L17.7813 11.0266L18.0676 11.3128L17.7813 11.599L17.4951 11.3128Z" fill="white"/>
<path d="M2.88753 5.06714L3.17373 4.78092L3.45995 5.06713L3.17374 5.35335L2.88753 5.06714Z" fill="white"/>
<path d="M13.4445 16.665L13.7307 16.3787L14.0169 16.665L13.7307 16.9512L13.4445 16.665Z" fill="white"/>
<path d="M4.50946 4.02605L4.79567 3.73984L5.08189 4.02604L4.79568 4.31226L4.50946 4.02605Z" fill="white"/>
</g>
<defs>
<clipPath id="clip0_29_2">
<rect width="20" height="20" fill="white"/>
</clipPath>
</defs>
</svg>
