<svg width="20" height="20" viewBox="0 0 20 20" fill="none" xmlns="http://www.w3.org/2000/svg">
<g clip-path="url(#clip0_25_23)">
<path d="M10 4.72656C7.09379 4.72656 4.72656 7.09379 4.72656 10C4.72656 12.9062 7.09379 15.2734 10 15.2734C12.9062 15.2734 15.2734 12.9062 15.2734 10C15.2734 7.09379 12.9062 4.72656 10 4.72656Z" fill="#F4E000"/>
<path d="M9.41406 0H10.5859V2.96875H9.41406V0ZM9.41406 17.0312H10.5859V20H9.41406V17.0312Z" fill="#FFC91F"/>
<path d="M4.61638 5.44485L2.54263 3.37103L3.3712 2.54249L5.44495 4.61631L4.61638 5.44485Z" fill="#FFC91F"/>
<path d="M16.6289 17.4579L14.5551 15.384L15.3837 14.5555L17.4575 16.6293L16.6289 17.4579Z" fill="#FF9F22"/>
<path d="M0 9.41406H2.96875V10.5859H0V9.41406Z" fill="#FFC91F"/>
<path d="M17.0312 9.41406H20V10.5859H17.0312V9.41406Z" fill="#FF9F22"/>
<path d="M3.3708 17.4579L2.54225 16.6293L4.61607 14.5555L5.44462 15.3841L3.3708 17.4579Z" fill="#FFC91F"/>
<path d="M15.3838 5.44504L14.5553 4.61647L16.6291 2.54272L17.4577 3.37129L15.3838 5.44504Z" fill="#FF9F22"/>
<path d="M10 0H10.5859V2.96875H10V0ZM10 17.0312H10.5859V20H10V17.0312Z" fill="#FF9F22"/>
<path d="M15.2734 10C15.2734 12.9062 12.9062 15.2734 10 15.2734V4.72656C12.9062 4.72656 15.2734 7.09379 15.2734 10Z" fill="#FFC91F"/>
</g>
<defs>
<clipPath id="clip0_25_23">
<rect width="20" height="20" fill="white"/>
</clipPath>
</defs>
</svg>
